<svg xmlns="http://www.w3.org/2000/svg" width="594" height="594" viewBox="0 0 594 594">
  <defs>
    <style>
      .cls-1 {
        fill: #fff;
      }

      .cls-1, .cls-2 {
        fill-rule: evenodd;
      }
    </style>
  </defs>
  <path id="Color_Fill_2" data-name="Color Fill 2" class="cls-1" d="M269,3C425.521,0.735,517.416,69.136,564,176c18.428,42.275,35.5,108.469,22,170-5.385,24.553-11.794,47.947-21,69-41.621,95.183-121.668,152.564-239,173-49.25,8.578-101.892-5.487-135-19C75.662,521.926-43.931,381.65,16,206,44.544,122.34,103.292,58.453,182,25c18.269-7.765,38.176-13.152,59-18Z"/>
  <path id="Color_Fill_1" data-name="Color Fill 1" class="cls-2" d="M174,522q-3-60.995-6-122c9.194-.362,17.825-0.156,23,3,6.9,41.224,39.8,81.937,78,93,43.437,12.581,95.8-2.582,105-37,12.466-46.634-24.518-53.5-54-61-52.021-13.231-113.735-16.938-137-59-36.344-65.71,19.82-124.689,75-137,45.232-10.092,67.041,19.382,94,23l5-4c4.639-32.615,6.927-98.294-6-121-22.574-39.65-97.125-38.886-127-7,0.905,26.368,35.35,48.466,2,72-27.816,19.629-66.276-10.305-58-45C185.508,46.6,321.058,19.479,386,69c34.86,26.582,26.013,96.946,26,158-0.007,33.511-3.638,70.006,20,80,15.561,4.415,23.029-5.225,35-7l9,15c-12.636,21.762-59.633,35.1-86,16-18.244-13.214-18.24-29.334-29-51-14.477-29.153-54.241-67.583-107-53-10.37,2.866-21.329,6.227-29,12-21.048,15.838-26.205,58.581-1,74,62.265,38.091,161.058,7.02,186,87,22.351,71.669-55.02,139.57-126,124-26.9-5.9-47.411-15.377-66-29h-5l-23,27H174Z"/>
</svg>
