<svg xmlns="http://www.w3.org/2000/svg" width="2000" height="1000" viewBox="0 0 2000 1000">
  <defs>
    <style>
      .cls-1 {
        fill: #6e6f76;
        fill-rule: evenodd;
      }
    </style>
  </defs>
  <path id="Color_Fill_3" data-name="Color Fill 3" class="cls-1" d="M2000,180v820H0L1,370c17.053,0.552,25.241-2.907,35-9l53,28c1.911,41.116,40.622,28.416,68,44l18,19c33.473,0.55,55.636-6.968,85-13,17.31-3.556,36,.963,48-5l28-22,43-4,28-12c20.365-10.935,36.757-40.86,57-45,32.826-6.713,90.9,56.159,117,67,36.774,15.277,39.745-35.278,77-28,23.727,4.635,49.911,18.907,68,33,7.2,5.612,7.518,17.851,16,22,23.987,11.217,66.067-13.5,98-7,14.164,2.881,26.384,20.45,43,13,3.285-7.348,7.514-13.788,10-23,16.444-2.793,38.389-12.8,47-24l7-14,38-16c19.69-13.418,32.15-41.4,47-60,14.12-17.689,28.31-13.924,44-26q8.505-14,17-28,18.495-13,37-26c11.15-8.483,16.56-21.065,30-28l33,12c25.38,14.925,45.71,35.364,69,52l27,15c11.64,8.635,14.14,29.781,30,34,23.31,6.2,35.15-14.534,57-15q19.995,14,40,28c18.97,9.424,46.89,4.111,70,9,12.16,2.572,23.26,14.945,39,11,20.24-5.072,27.31-28.22,47-33,15.33-3.721,50.19,15.031,80,10l27-6h27q11.505-6.5,23-13l30-8q7.005-7.5,14-15c7.85-3.531,16.76-.06,23-4l55-48,45-17C1927.66,199.328,1947.29,180.3,2000,180Z"/>
</svg>
