<svg xmlns="http://www.w3.org/2000/svg" width="2000" height="1000" viewBox="0 0 2000 1000">
  <defs>
    <style>
      .cls-1 {
        fill: #272727;
        fill-rule: evenodd;
      }
    </style>
  </defs>
  <path id="Color_Fill_1" data-name="Color Fill 1" class="cls-1" d="M2000,1186H-320V330.718c34.383-5.514,66.907,3.195,97.875,12.684,5.021,1.538,9.08-1.086,14.5,1.208,7.858,3.326,14.088,9.861,21.146,13.288l18.729,2.416c3.273,1.208,8.63,4.853,13.292,4.228l27.791-9.664c4.359-4.274,3.259-15.415,8.459-18.724,2.059-1.311,17.265-6.837,19.333-6.644,6.555,0.61,7.848,4.627,15.1,1.208,9.042,3.679,13.5,12.92,20.542,18.724,4.981,4.1,9.668,2.772,16.313,6.04,5.413,2.662,7.478,7.879,15.708,9.06,4.961,0.713,5.551-2.743,8.458-3.624,6.213-1.883,10.787,2.737,14.5,3.624,1.518,0.363,17.342-.667,19.333-1.208,4.45-1.208,5.161-6.508,13.292-4.832L57,372.4c16.386,4.118,39.11-12.622,58-9.061L136.75,373c10.291,3.36,21.1,5.834,30.208,9.06,11,3.9,17.295.133,30.209,3.02,7.774,1.738,15.31,9.627,20.541,14.5,9.965-.132,14.512-5.885,25.375-3.624,13.665,2.844,30.062,10.909,48.334,7.248,5.548-1.111,11.136-4.771,15.708-6.04,14.179-3.934,24.665,9.419,38.667,6.04,13.967-3.371,49.722-31.768,62.833-27.18,5.933,2.7,6.949,9.355,11.479,13.288l25.979,11.476c15.186,3.486,46.666,4.168,62.834,0,9.446-2.435,22.23-8.1,31.416-10.268,12.739-3.013,34.779,16.874,43.5,19.932,10.886,3.817,16.152-4.318,28.4,1.208,10.684-5.608,22.534-9.361,36.854-12.08L666,401.991c7.92,1.489,18.358-2.737,23.562-5.436l13.9-10.872c17.765-10.912,34.657-20.662,51.959-32.013,9.515-6.242,16.586-13.571,28.395-18.12,5.055,1.972,13.717,9.308,21.146,7.248,10.312-2.859,30.111-11.113,42.292-5.436,11.395,5.311,23.676,17.343,33.229,25.368,7.846,6.592,17.129,10.164,25.979,15.7,6.324,3.959,11.713,10.95,18.729,14.5,5.63,2.845,14.869,1.226,21.146,4.228,12.27,5.868,21.72,16.041,36.25,21.141,11.28,3.959,34.557,7.712,48.337,4.228,6.91-1.75,14.27-8.835,24.16-7.249,12.63,2.025,14.04,11.686,21.75,13.289,5.46,1.134,12.16-8.117,15.71-10.268,2.22-1.341,50.75-12.685,50.75-12.685,23.83,6.7,48.85,17.64,71.29,25.973,16.55,6.142,31.21,1.248,50.75,5.436,8.21,1.758,14.09,6.71,22.96,8.456l33.83-1.208c4.68,1.049,9.28,5.39,15.71,4.832h1.21c4.78-1.1,11.56-6.207,15.11-9.06,12.22-9.827,25.42,1.429,35.04,6.644,7.05-2.658,14.31-8.823,23.56-4.228,2.01,1.812,4.03,3.624,6.04,5.436l9.67-.6c3.15,1.029,4.1,4.661,8.46,3.624,14.64-2.141,30.97-20.8,43.5-26.576l10.87-1.208c10.66-3.842,20.41-12.511,30.81-18.121,5.34-2.878,25.88-15.209,32.02-13.288,14.34,6.335,18.31,25.881,33.84,30.805,15.06,4.776,20.83-7.959,32.62-6.04,9.65,1.569,29.17,15.506,38.07,20.536l9.66-3.02c6.72,4.764,11.01,1.387,18.73,4.832l30.21,15.1c10.23,2.641,20.67-2.492,28.4-3.624,11.74-1.72,22.76,5.158,36.85,2.416,18.57-3.615,38.94-8.836,55.58-12.08,7.94-1.547,15.57,1.375,20.54,2.416,5.7,1.192,9.11-1.59,12.09-2.416,7.48-2.076,15.15,1.859,20.54,2.416,2.01-.805,4.03-1.611,6.04-2.416,5.26-.788,12.01,4.141,15.71,5.436l41.08,6.644q13.29,5.436,26.59,10.873,9.66-3.021,19.33-6.041V1186Z"/>
</svg>
