<svg xmlns="http://www.w3.org/2000/svg" width="2000" height="1000" viewBox="0 0 2000 1000">
  <defs>
    <style>
      .cls-1 {
        fill: #7e4848;
        fill-rule: evenodd;
      }
    </style>
  </defs>
  <path id="Color_Fill_1" data-name="Color Fill 1" class="cls-1" d="M2002,1000H-6.582V654.716c0-29.95-7.1-114.587,3.138-134.025,18.873-3.465,52.765-25.418,68-36.345l12.554-12.494c6.542-3.378,10.512,2.881,16.738,1.136,7.444-2.086,8.909-12.036,23.015-9.087,26.226,5.484,32.429,15.188,49.168,27.259l16.738,3.408c9.524,10.421,16.312,30.329,28.246,37.481,20.31,12.172,48.312-6.958,75.322,0,13.751,3.543,29.664,15.6,43.938,18.173l37.661,1.136c11.925,4.963,17.308,14.075,30.338,12.494q1.046,3.407,2.092,6.815c9.568-5.223,27.752,9.492,44.984,6.814H545.778c16.31,3.9,30.924,15.819,46.03,20.445l18.83-1.136a55.555,55.555,0,0,1,29.292,13.63q2.616,9.653,5.231,19.308l7.323-7.95,3.138-1.136,4.185,3.407c0.859,7.119.865,7.783,8.369,7.951,28.121-10.443,46.3,6.286,70.091,11.358,22.032,4.7,38.226-5.849,52.307-9.086,25.537-5.872,48.875,8.577,66.953,5.679,2.447-5.282,4.749-10.466,10.461-12.494q2.092,3.975,4.184,7.95c17.225-10.684,34.186-34.8,54.4-39.753h60.676c20.2-9.154,34.162-32.734,54.4-40.889,15.19-6.121,33.98-8.53,55.44-6.814l15.69,2.271c4.19-1.444,5.23-6.1,10.47-7.95v7.95c40.15,0.238,78.35-26.619,104.61-22.716-0.15-11.111,2.32-17.571,6.28-23.852,11.93-1.157,16.74-7.678,23.01-14.765,34.41,0.194,58.78,35.651,96.25,22.716,14.7-5.078,32.18-19.013,46.03-26.124l32.43-2.271,24.06-17.037c29.88-11.226,77.43,8.138,110.89-2.272l16.74-10.222L1620.16,448h1.05c1.04,1.136,2.09,2.272,3.13,3.407,2.15-.352,3.87-3.965,9.42-4.543,14.7,22.015,52.79,31.714,77.41,27.259,2.1-4.9,4.07-10.891,8.37-13.629l11.51-1.136q1.05-3.406,2.09-6.815c11.6,4.869,15.45,2.068,23.02-4.543,0.35-1.136.7-2.272,1.04-3.407-9.19-22.565,7.43-28.77,15.7-43.161,8.41-14.648,8.67-25.278,23.01-36.346l8.37,1.136c3.86-9.654,9.85-16.93,11.51-29.531,0.18-.012,41.84-11.358,41.84-11.358q9.42-7.382,18.83-14.765,7.335,0.567,14.65,1.136c11.33-2.363,35.7-4.063,48.12-9.087,5.16-2.087,4.5-9.741,8.37-12.494l8.37,1.136,9.42-9.086,15.69,6.815c2.69-12.83,11.89-7.488,12.55-24.988H2002v736Z"/>
</svg>
