<svg xmlns="http://www.w3.org/2000/svg" width="2000" height="1000" viewBox="0 0 2000 1000">
  <defs>
    <style>
      .cls-1 {
        fill: #383838;
        fill-rule: evenodd;
      }
    </style>
  </defs>
  <path id="Color_Fill_1" data-name="Color Fill 1" class="cls-1" d="M0,1352H2004V573.9h-4.85c-17.37,7.606-74.11,29.224-92.12,30.816-9.97.881-17.61-10.594-32.32-8.988-25.59,2.792-59.1,13.782-80.81,8.988-16.76-3.7-20.9-23.872-51.71-20.544-19.76,2.134-27.77,12.393-42.02,17.976-12.7,4.975-19.39-3.064-29.09-1.284q-8.085,4.492-16.16,8.988L1609.66,606c-29.76,5.6-73.81,3.6-100.2,7.7q-16.155,4.493-32.32,8.988l-22.62-5.136c-14.99-2.582-44.56,8.091-54.95,10.272l-25.86-1.284q-14.55,5.777-29.09,11.556c-19.72,4.814-49.46.353-64.65,8.988-13.45,7.654-19.15,19.918-37.17,25.68-10.16,3.249-22.2-.391-32.32,5.136-30.03,16.393-94.06,61.084-132.52,65.484-38.35-18.45-113.73,20.771-148.686,11.556l-11.313-7.7c-22.292-7.942-51.112,2.7-69.493,0-22.911-3.371-47.81-13.351-66.262-15.408l-16.161,1.284c-42-9.864-47.952-55.428-111.513-32.1-28.3-10.142-43.779-39.531-67.877-53.928l-19.394-5.136-43.635-30.816-40.4-12.84c-14.391-9.242-25.913-22.964-43.636-29.532-7.629-2.828-45.223,5.1-48.484,7.7l-29.09-2.568c-15.266,1.434-37.906,9.485-61.413,2.568-21.057-6.2-42.632-22.057-61.413-28.248l-100.2-5.136-87.271-12.84-16.161,7.7c-12.5,1.909-19.27-12.524-35.555-6.42V1352Z"/>
</svg>
