<svg xmlns="http://www.w3.org/2000/svg" width="2000" height="1000" viewBox="0 0 2000 1000">
  <defs>
    <style>
      .cls-1 {
        fill: #a5a5a5;
        fill-rule: evenodd;
      }
    </style>
  </defs>
  <path id="Color_Fill_2" data-name="Color Fill 2" class="cls-1" d="M2002,790.464V1945H-1V829.6l391.211-43.05,133.012-35.224c34.007-7.295,59.487,9.394,82.154,15.655l152.572,15.655c29.954-4.3,58.408-25.624,82.155-37.18,26.2-12.748,152.7-34.109,195.606-25.439l172.13,41.094,60.64,39.136c31.98,16.17,59.08,16.695,95.85,31.31q27.375,16.632,54.77,33.266c41.13,13.324,140.54-8.625,176.04-15.655q52.815-3.912,105.63-7.827c69.4-20.411,141.22-39.585,219.08-54.791Z"/>
</svg>
